<svg width="634" height="727" viewBox="0 100 634 727" fill="none" xmlns="http://www.w3.org/2000/svg">
<path d="M634 726.125H607.374C580.848 726.125 527.297 726.125 474.444 680.75C421.292 635.375 367.742 544.625 314.889 559.655C261.737 575.82 208.186 694.93 155.333 680.75C102.181 666.57 48.6305 513.43 -4.22224 408.5C-57.3742 303.57 -110.925 241.18 -163.778 181.625C-216.93 122.07 -270.481 59.6797 -323.333 136.25C-376.485 212.82 -430.036 422.68 -482.889 544.625C-536.041 666.57 -589.592 694.93 -642.444 695.78C-695.596 694.93 -749.147 666.57 -775.075 650.405L-802 635.375L-802 0.124961H-775.374C-748.848 0.124961 -695.297 0.124961 -642.444 0.124961C-589.293 0.124961 -535.742 0.124961 -482.889 0.124961C-429.737 0.124961 -376.186 0.124961 -323.333 0.124961C-270.181 0.124961 -216.631 0.124961 -163.778 0.124961C-110.626 0.124961 -57.075 0.124961 -4.22224 0.124961C48.9297 0.124961 102.481 0.124961 155.333 0.124961C208.485 0.124961 262.036 0.124961 314.889 0.124961C368.041 0.124961 421.592 0.124961 474.444 0.124961C527.596 0.124961 581.147 0.124961 607.075 0.124961H634L634 726.125Z" fill="#0099FF"/>
</svg>
